<svg width="1116" height="1049" xmlns="http://www.w3.org/2000/svg"><g fill="none" fill-rule="evenodd"><path d="M367.864 993.636h666.185s114.515 1 72.79 13.654c-41.725 12.654-298.988 41.71-398.595 41.71-99.608 0-1200.2-60.442-340.38-55.364z" fill="#DBDBDD"/><path d="M970.17 140.033c0 19.149-15.657 34.8-34.812 34.8H783.032a34.485 34.485 0 01-24.568-10.24c-6.33-6.327-10.244-14.986-10.244-24.56 0-19.148 15.657-34.883 34.812-34.883h1.25c-.5-2.331-.833-4.746-.833-7.327 0-18.815 15.324-34.134 34.146-34.134 1.332 0 2.748.084 4.08.25 5.248-17.983 21.821-31.137 41.476-31.137 19.572 0 36.145 13.07 41.392 30.887h.916c18.822 0 34.146 15.236 34.146 34.134 0 2.581-.333 5.079-.832 7.493 8.744.916 16.573 5.079 22.236 11.24 5.747 6.244 9.161 14.486 9.161 23.477z" fill="#EDEFF4"/><path d="M957.178 130.792c0 19.148-15.657 34.8-34.812 34.8H770.04a34.485 34.485 0 01-24.569-10.24c-6.33-6.327-10.244-14.986-10.244-24.56 0-19.148 15.658-34.883 34.813-34.883h1.25c-.5-2.332-.834-4.746-.834-7.327 0-18.815 15.325-34.134 34.147-34.134 1.332 0 2.748.083 4.08.25 5.247-17.983 21.82-31.137 41.476-31.137 19.571 0 36.145 13.07 41.392 30.887h.916c18.822 0 34.146 15.236 34.146 34.134 0 2.581-.333 5.079-.833 7.493 8.745.916 16.574 5.079 22.237 11.24 5.747 6.327 9.161 14.486 9.161 23.477z" stroke="#D4D5D8" stroke-width="4"/><path d="M195.883 58.528c4.747 0 9.244.915 13.409 2.58 6.662-22.894 25.984-39.379 48.887-39.379 17.906 0 33.73 10.157 42.891 25.643 1.5-.167 2.998-.334 4.58-.334 15.741 0 29.4 10.074 35.896 24.81a23.511 23.511 0 0110.744-2.58c9.827 0 18.322 5.994 22.736 14.902a19.408 19.408 0 015.83-.916c12.076 0 21.903 10.906 21.903 24.31 0 2.581-.333 5.079-1.082 7.41H157.323c-1-3.83-1.5-7.91-1.5-12.155.167-24.477 18.073-44.291 40.06-44.291zM433.324 44.125c12.077 0 22.154 8.408 24.819 19.73 2.165-1.082 4.664-1.664 7.246-1.664 8.328 0 15.157 6.16 16.24 14.153h-72.874a25.837 25.837 0 01-.915-6.744c0-14.07 11.41-25.475 25.484-25.475z" fill="#EDEFF4"/><g fill="#D4D6D8"><path d="M388.351 145.528h47.972a3.91 3.91 0 003.914-3.913 3.91 3.91 0 00-3.914-3.913H388.35a3.91 3.91 0 00-3.914 3.913 3.91 3.91 0 003.914 3.913zM370.029 167.507H418a3.91 3.91 0 003.915-3.913 3.91 3.91 0 00-3.915-3.913H370.03a3.91 3.91 0 00-3.914 3.913 3.91 3.91 0 003.914 3.913zM251.85 145.528h87.03a3.91 3.91 0 003.915-3.913 3.91 3.91 0 00-3.914-3.913H251.85a3.91 3.91 0 00-3.915 3.913 3.91 3.91 0 003.915 3.913zM362.117 141.615a3.91 3.91 0 003.914 3.913 3.91 3.91 0 003.915-3.913 3.91 3.91 0 00-3.915-3.913c-2.165 0-3.914 1.832-3.914 3.913zM343.461 163.594a3.91 3.91 0 003.915 3.913 3.91 3.91 0 003.914-3.913 3.91 3.91 0 00-3.914-3.913 3.91 3.91 0 00-3.915 3.913z"/></g><path d="M433.491 384.966c-2.249 0-4.414.5-6.413 1.332-3.081-8.908-11.576-15.402-21.57-15.402-3.082 0-5.997.583-8.662 1.666-2.998-17.983-18.572-31.637-37.31-31.637-1.5 0-2.999.083-4.415.25-8.328-19.149-27.317-32.47-49.554-32.47-22.153 0-41.225 13.405-49.553 32.47-1.5-.167-2.915-.25-4.414-.25-18.49 0-33.897 13.237-37.145 30.804-1.999-.583-4.08-.833-6.163-.833-9.161 0-17.073 5.412-20.737 13.238-1.916-.75-3.915-1.166-6.08-1.166-3.498 0-6.746 1.083-9.494 2.914-3.748-12.155-15.075-20.897-28.4-20.897-11.41 0-21.32 6.411-26.318 15.819a22.884 22.884 0 00-13.325-4.246c-7.829 0-14.658 3.913-18.905 9.824-2.832-2.165-6.33-3.414-10.161-3.414-9.245 0-16.823 7.493-16.823 16.818 0 .5 0 .999.083 1.498H449.898c0-8.991-7.329-16.318-16.407-16.318z" fill="#EDEFF4"/><g transform="translate(149.91 479.543)" fill="#D4D6D8"><path d="M123.093 12.904h78.453c3.498 0 6.413-2.83 6.413-6.41 0-3.497-2.832-6.41-6.413-6.41h-78.453c-3.498 0-6.413 2.83-6.413 6.41.084 3.58 2.915 6.41 6.413 6.41z"/><ellipse cx="86.615" cy="6.494" rx="6.413" ry="6.411"/><path d="M79.536 62.274h78.453c3.498 0 6.413-2.83 6.413-6.41 0-3.497-2.832-6.411-6.413-6.411H79.536c-3.498 0-6.413 2.83-6.413 6.41 0 3.497 2.832 6.411 6.413 6.411z"/><ellipse cx="42.391" cy="55.863" rx="6.413" ry="6.411"/><ellipse cx="6.496" cy="55.863" rx="6.413" ry="6.411"/></g><g><path d="M484.46 974.987s-66.043-94.993-54.217-129.376c11.826-34.384 63.545 23.394 63.545 23.394s22.653-112.31 44.64-122.217c21.987-9.824 81.119 74.013 81.119 74.013s87.28-102.403 121.427-95.659c34.063 6.744 40.809 82.255 40.809 82.255s67.376-39.462 80.952-26.225c13.658 13.237 0 68.685 0 68.685s44.057-12.822 60.963 7.243c16.907 20.064-60.963 107.23-60.963 107.23L484.46 974.988z" fill="#D4D6D8"/><path d="M472.468 993.47s-45.89-30.888-51.803-61.775c-5.913-30.887 60.298-3.746 60.298-3.746s-28.816-80.757-17.073-96.159c11.826-15.402 68.792 18.816 68.792 18.816s59.298-104.234 88.53-89.831c29.316 14.403 72.457 102.569 72.457 102.569s92.445-67.27 110.1-47.289c17.657 19.981-21.57 84.337-21.57 84.337s74.373-18.15 82.368 0c7.995 18.149-41.142 57.944-41.142 57.944s64.211-16.65 69.458 3.164c5.247 19.898-85.116 31.97-85.116 31.97h-335.3z" fill="#ECEDF2"/><path d="M837.833 913.629c-39.477 10.99-78.87 10.99-118.346-8.742-56.966-26.308-100.773 39.463-153.408 63.523-24.07 10.99-54.801-10.99-83.284-4.412-11.493 2.497-19.988 9.24-25.152 18.15 8.329 6.992 14.741 11.322 14.741 11.322h335.217s90.363-12.155 85.116-31.97c-5.247-19.898-69.459-3.164-69.459-3.164s33.647-27.307 40.643-46.955c-8.162-1.582-16.99-1.082-26.068 2.248z" fill="#D4D6D8"/><g fill="#DBDBDD"><path d="M740.807 719.564c.75 9.324-.999 17.15-3.747 17.317-2.832.25-5.664-7.16-6.413-16.568-.75-9.324 1-17.15 3.748-17.316 2.748-.167 5.663 7.243 6.412 16.567zM757.38 729.471c-5.829 6.744-12.159 10.823-14.157 9.075-2-1.748 1-8.658 6.829-15.402 5.83-6.744 12.16-10.823 14.158-9.075 1.999 1.749-1 8.659-6.83 15.402zM916.702 844.278c-2.831 6.994-6.912 11.99-8.994 11.157-2.082-.833-1.5-7.244 1.332-14.32 2.832-6.993 6.913-11.989 8.995-11.156 2.165.916 1.582 7.243-1.333 14.32zM513.193 788.831c6.163 4.496 9.994 9.575 8.662 11.406-1.333 1.832-7.412-.25-13.575-4.745-6.163-4.496-9.994-9.575-8.662-11.406 1.416-1.832 7.496.25 13.575 4.745zM521.522 781.838c2.582 5.578 3.331 10.74 1.582 11.572-1.665.75-5.163-3.163-7.745-8.741-2.582-5.578-3.332-10.74-1.583-11.573 1.75-.749 5.164 3.164 7.746 8.742zM924.698 855.85c-5.664 2.415-10.744 2.998-11.494 1.25-.75-1.749 3.249-4.996 8.912-7.41 5.663-2.414 10.743-2.997 11.493-1.249.75 1.749-3.331 4.995-8.911 7.41z"/><g><path d="M615.466 764.438c0 11.489-2.832 20.813-6.247 20.813-3.498 0-6.246-9.324-6.246-20.813 0-11.49 2.832-20.814 6.246-20.814 3.415-.083 6.247 9.242 6.247 20.814zM630.207 769.433c-3.498 8.742-8.495 14.903-11.077 13.82-2.582-1.082-1.915-8.991 1.583-17.65 3.497-8.741 8.494-14.902 11.076-13.82 2.582 1.083 1.916 8.992-1.582 17.65zM421.498 911.548c8.495 7.742 13.492 16.151 11.16 18.649-2.332 2.58-11.16-1.665-19.655-9.408-8.495-7.743-13.492-16.151-11.16-18.649 2.332-2.498 11.16 1.665 19.655 9.408zM435.157 904.138c4.08 8.492 5.33 16.318 2.748 17.567-2.582 1.248-7.912-4.663-11.993-13.071-4.08-8.492-5.33-16.318-2.748-17.567 2.582-1.249 7.912 4.58 11.993 13.071zM799.106 801.819c.75 9.324-1 17.15-3.748 17.317-2.831.25-5.663-7.16-6.413-16.568-.75-9.324 1-17.15 3.748-17.317 2.832-.25 5.663 7.16 6.413 16.568zM815.763 811.726c-5.83 6.744-12.16 10.823-14.159 9.075-1.998-1.748 1-8.659 6.83-15.402 5.83-6.744 12.16-10.823 14.158-9.075 1.999 1.749-1.083 8.659-6.83 15.402zM546.34 901.64c7.163 5.995 11.577 12.655 9.744 14.82-1.832 2.164-9.077-.916-16.323-6.994-7.162-5.994-11.577-12.654-9.744-14.819 1.832-2.164 9.078 1 16.323 6.993zM564.996 896.728c.75 8.909-.75 16.235-3.415 16.485s-5.497-6.744-6.246-15.652c-.75-8.908.75-16.234 3.415-16.484 2.748-.25 5.496 6.743 6.246 15.651zM711.492 841.198c7.162 5.994 11.576 12.655 9.744 14.82-1.832 2.164-9.078-.916-16.324-6.994-7.162-5.994-11.576-12.655-9.744-14.82 1.832-2.164 9.161.917 16.324 6.994zM730.23 836.203c.75 8.908-.75 16.234-3.414 16.484-2.665.25-5.497-6.743-6.246-15.652-.75-8.908.75-16.234 3.414-16.484 2.665-.166 5.414 6.827 6.246 15.652zM827.09 885.822c-2.25 7.243-5.83 12.572-7.996 11.906-2.165-.666-2.165-7.077.083-14.32 2.249-7.243 5.83-12.571 7.996-11.905 2.248.666 2.165 7.076-.084 14.32zM836.25 890.9c-3.914 4.247-8.078 6.744-9.41 5.579-1.25-1.166.832-5.578 4.747-9.824 3.914-4.246 8.078-6.744 9.41-5.578 1.25 1.165-.832 5.578-4.747 9.824zM468.304 822.383c3.164 6.91 7.329 11.655 9.41 10.74 2.083-.916 1.25-7.327-1.915-14.154-3.165-6.91-7.329-11.655-9.41-10.74-2.083.916-1.25 7.327 1.915 14.154zM459.892 828.627c4.414 3.746 8.911 5.661 9.994 4.329 1.083-1.332-1.582-5.412-5.996-9.158-4.414-3.746-8.912-5.661-9.994-4.33-1.083 1.333 1.582 5.412 5.996 9.159z"/></g></g></g><g><path d="M83.7 974.987s-66.044-94.993-54.218-129.376c11.827-34.384 63.546 23.394 63.546 23.394s22.653-112.31 44.64-122.217c21.987-9.824 81.118 74.013 81.118 74.013s87.281-102.403 121.427-95.659c34.063 6.744 40.81 82.255 40.81 82.255s67.376-39.462 80.951-26.225c13.659 13.237 0 68.685 0 68.685s44.057-12.822 60.964 7.243c16.906 20.064-60.964 107.23-60.964 107.23L83.7 974.988z" fill="#D4D6D8"/><path d="M71.624 993.47s-45.89-30.888-51.803-61.775c-5.913-30.887 60.298-3.746 60.298-3.746s-28.816-80.757-17.073-96.159c11.826-15.402 68.792 18.816 68.792 18.816s59.298-104.234 88.53-89.831c29.316 14.403 72.457 102.569 72.457 102.569s92.445-67.27 110.101-47.289c17.656 19.981-21.57 84.337-21.57 84.337s74.372-18.15 82.367 0c7.995 18.149-41.142 57.944-41.142 57.944s64.212-16.65 69.458 3.164c5.247 19.898-85.115 31.97-85.115 31.97h-335.3z" fill="#ECEDF2"/><path d="M437.072 913.629c-39.476 10.99-78.87 10.99-118.346-8.742-56.966-26.308-100.773 39.463-153.408 63.523-24.069 10.99-54.8-10.99-83.284-4.412-11.493 2.497-19.988 9.24-25.151 18.15 8.328 6.992 14.74 11.322 14.74 11.322H406.84s90.363-12.155 85.116-31.97c-5.247-19.898-69.458-3.164-69.458-3.164s33.646-27.307 40.642-46.955c-8.245-1.582-16.99-1.082-26.068 2.248z" fill="#D4D6D8"/><g fill="#DBDBDD"><path d="M339.964 719.564c.75 9.324-1 17.15-3.748 17.317-2.832.25-5.663-7.16-6.413-16.568-.75-9.324 1-17.15 3.748-17.316 2.831-.167 5.663 7.243 6.413 16.567zM356.537 729.471c-5.83 6.744-12.16 10.823-14.158 9.075-1.999-1.748 1-8.658 6.83-15.402 5.829-6.744 12.158-10.823 14.157-9.075 2.082 1.749-1 8.659-6.829 15.402zM515.859 844.278c-2.832 6.994-6.913 11.99-8.995 11.157-2.082-.833-1.5-7.244 1.332-14.32 2.832-6.993 6.913-11.989 8.995-11.156 2.165.916 1.582 7.243-1.332 14.32zM112.433 788.831c6.163 4.496 9.994 9.575 8.661 11.406-1.332 1.832-7.412-.25-13.575-4.745-6.163-4.496-9.994-9.575-8.661-11.406 1.332-1.832 7.412.25 13.575 4.745zM120.678 781.838c2.582 5.578 3.331 10.74 1.582 11.572-1.665.75-5.163-3.163-7.745-8.741-2.582-5.578-3.331-10.74-1.582-11.573 1.748-.749 5.163 3.164 7.745 8.742zM523.854 855.85c-5.664 2.415-10.744 2.998-11.493 1.25-.75-1.665 3.248-4.996 8.91-7.41 5.664-2.414 10.745-2.997 11.494-1.249.666 1.749-3.248 4.995-8.911 7.41z"/><g><path d="M214.622 764.438c0 11.489-2.832 20.813-6.246 20.813-3.498 0-6.247-9.324-6.247-20.813 0-11.49 2.832-20.814 6.247-20.814 3.414-.083 6.246 9.242 6.246 20.814zM229.363 769.433c-3.498 8.742-8.495 14.903-11.077 13.82-2.582-1.082-1.915-8.991 1.583-17.65 3.498-8.741 8.495-14.902 11.076-13.82 2.665 1.083 1.916 8.992-1.582 17.65zM20.654 911.548c8.495 7.742 13.492 16.151 11.16 18.649-2.332 2.58-11.16-1.665-19.655-9.408C3.664 913.046-1.333 904.638 1 902.14c2.416-2.498 11.16 1.665 19.655 9.408zM34.313 904.138c4.08 8.492 5.33 16.318 2.748 17.567-2.582 1.248-7.912-4.663-11.993-13.071-4.08-8.492-5.33-16.318-2.748-17.567 2.582-1.249 7.912 4.58 11.993 13.071zM398.262 801.819c.75 9.324-1 17.15-3.748 17.317-2.831.25-5.663-7.16-6.413-16.568-.75-9.324 1-17.15 3.748-17.317 2.832-.25 5.747 7.16 6.413 16.568zM414.919 811.726c-5.83 6.744-12.16 10.823-14.158 9.075-2-1.748.999-8.659 6.829-15.402 5.83-6.744 12.16-10.823 14.158-9.075 1.999 1.749-1 8.659-6.83 15.402zM145.496 901.64c7.163 5.995 11.577 12.655 9.745 14.82-1.833 2.164-9.078-.916-16.324-6.994-7.162-5.994-11.576-12.654-9.744-14.819 1.832-2.164 9.161 1 16.323 6.993zM164.235 896.728c.75 8.909-.75 16.235-3.414 16.485-2.665.25-5.497-6.744-6.247-15.652s.75-16.234 3.415-16.484 5.413 6.743 6.246 15.651zM310.648 841.198c7.162 5.994 11.576 12.655 9.744 14.82-1.832 2.164-9.078-.916-16.324-6.994-7.162-5.994-11.576-12.655-9.744-14.82 1.832-2.164 9.161.917 16.324 6.994zM329.387 836.203c.75 8.908-.75 16.234-3.415 16.484s-5.497-6.743-6.246-15.652c-.75-8.908.75-16.234 3.414-16.484 2.665-.166 5.497 6.827 6.247 15.652zM426.329 885.822c-2.249 7.243-5.83 12.572-7.996 11.906-2.165-.666-2.165-7.077.084-14.32 2.248-7.243 5.83-12.571 7.995-11.905 2.165.666 2.082 7.076-.083 14.32zM435.407 890.9c-3.915 4.247-8.079 6.744-9.411 5.579-1.25-1.166.832-5.578 4.747-9.824 3.914-4.246 8.078-6.744 9.41-5.578 1.25 1.165-.832 5.578-4.746 9.824zM67.46 822.383c3.164 6.91 7.329 11.655 9.41 10.74 2.083-.916 1.25-7.327-1.915-14.154-3.165-6.91-7.329-11.655-9.41-10.74-2.083.916-1.25 7.327 1.915 14.154zM59.048 828.627c4.414 3.746 8.911 5.661 9.994 4.329 1.083-1.332-1.582-5.412-5.996-9.158-4.414-3.746-8.912-5.661-9.994-4.33-1.083 1.333 1.582 5.412 5.996 9.159z"/></g></g></g><g><path fill="#D4D6D8" d="M937.357 991.805h-90.28l-12.076-176H950.1z"/><path d="M868.148 777.259s14.325-70.766-14.325-99.405c-28.65-28.64-44.973-38.88-44.973-38.88s-53.218 85.086 59.298 138.285zM874.644 579.864s14.325-70.766-14.325-99.405c-28.65-28.64-44.973-38.88-44.973-38.88s-53.218 85.086 59.298 138.285z" fill="#ECEDF2"/><path d="M885.304 464.724s12.576-46.04-11.16-72.265c-23.735-26.225-49.387-32.719-49.387-32.719s-3.248 72.598 60.547 104.984z" fill="#D4D6D8"/><path d="M908.207 740.045s-5.746-102.653 62.63-145.612c0 0 .416 121.052-62.63 145.612z" fill="#ECEDF2"/><path d="M891.884 678.104s-8.245-71.432-60.464-92.912c.083 0 14.158 83.504 60.464 92.912zM920.867 557.219s-41.31-73.18 42.557-127.629c0 0 32.231 91.58-42.557 127.629z" fill="#D4D6D8"/><path d="M871.73 423.846s23.152 45.29 23.152 114.557v103.069M850.659 525.333s19.405 34.633 23.985 54.53c4.58 19.899 8.578 83.671 8.578 148.36v140.699M844.08 724.31s21.653 34.633 23.985 52.866c2.332 18.232 0 93.66 0 93.66" stroke="#D4D6D8" stroke-width="2" stroke-linecap="round"/><path d="M873.645 652.295s12.992 15.818 18.239 25.809c5.247 9.99 9.577 45.79 9.577 61.94v120.22M937.273 502.021s-16.406 31.887-16.406 55.198v303.044" stroke="#D4D6D8" stroke-width="2" stroke-linecap="round"/></g><g><path fill="#C1610A" d="M815.762 958.92h218.286v34.967H815.762z"/><path fill="#E17000" d="M945.602 693.589H904.21l-59.548 265.33h160.488z"/><path fill="#C1610A" d="M844.662 958.92h160.488l-9.411-42.127H855.572z"/><g fill="#FFF"><path d="M880.14 800.986h89.53l-7.661-34.467h-74.206zM990.658 894.397l-7.745-34.384H866.899l-7.746 34.384z"/></g><path fill="#FF8F29" opacity=".49" d="M931.36 693.589l52.053 265.33h21.737l-59.548-265.33z"/></g><g><path d="M870.98 890.651l-8.162-10.657c-1.333-1.665-3.831-1.831-5.33-.333l-1.666 1.666c-31.814-38.214-61.38-90.498-78.12-119.137-21.57-36.798-1.166-232.945-1.166-232.945s-40.642-8.075-87.947-16.567c-13.242 19.898-28.15 37.381-40.393 38.63-22.57 2.33-84.45-17.817-111.517-27.141-26.4 140.949 3.665 302.212 19.405 376.474a3.122 3.122 0 00-2.998 3.997l4.58 15.901a3.398 3.398 0 003.249 2.414h31.814c2.166-6.244 1.583-28.223-11.16-52.283-12.742-24.06 3.831-65.854 0-108.147-3.83-42.293 35.063-177.497 35.063-177.497 2.915 11.156 24.652 92.245 24.652 92.245s5.33 15.902 35.895 80.507c23.32 49.203 103.521 122.133 145.33 156.85l-.583.583c-1.416 1.415-1.333 3.746.25 4.995l9.16 7.493c1.916 1.582 4.748 1.415 6.497-.25l.166-.166 31.565-30.471 1-1c1.415-1.415 1.582-3.662.416-5.161z" fill="#303D8B"/><path d="M581.486 762.523c3.831 42.293-12.66 84.003 0 108.147 12.66 24.144 13.242 46.04 11.16 52.283h20.404a2.608 2.608 0 002.582-2.247l1.416-13.404c.333-3.58-2.415-6.66-5.996-6.66h-.25c-3.498-34.717-6.163-68.352-4.83-86.418 3.497-47.039 35.312-136.953 35.312-136.953s-21.737-81.09-24.652-92.245c-.084 0-38.977 135.204-35.146 177.497zM648.113 551.308c12.243-1.249 27.15-18.732 40.392-38.63-65.544-11.905-143.83-24.56-145.413-18.15-2.498 9.741-4.58 19.649-6.496 29.639 27.067 9.324 88.947 29.472 111.517 27.14z" fill="#0A1658"/><g fill="#FF7977"><path d="M560.832 922.953c1.665 7.826 2.915 13.404 3.331 16.485.083.75.167 1.582.083 2.33h50.72c-.666-6.16-1.333-12.404-1.999-18.815h-52.135zM883.472 909.8c-4.664-3.914-9.244-8.243-13.908-13.072L837.999 927.2c4.748 3.747 8.079 6.078 9.411 6.91 1.666.916 2.832 2.748 3.665 5.079l32.397-29.389c0 .084 0 0 0 0z"/></g><path d="M836.25 889.07s-89.78-110.23-97.358-130.127c-7.662-19.898-32.314-120.052-13.492-217.376" stroke="#C9E2F3" stroke-width="2" stroke-linecap="round"/><path d="M806.518 345.171c.083-.25.083-.333.083-.333s-.333.832-.916 2.248c.417-.916.667-1.582.833-1.915zM357.87 414.272l165.734-44.957zM527.768 301.796c-.167.915-.25 2.33-.25 4.08l.25-4.08z" fill="#FEB701"/><path d="M810.516 265.33c-22.32-60.525-131.422-77.592-131.422-77.592-3.58-.25-7.495-.25-11.66-.084l-24.568 32.72s-17.323.582-39.643 0c-22.32-.584-32.397-5.662-55.8 4.911-61.463 38.63-191.053 126.63-191.053 126.63l171.398-50.286s69.958 54.948 102.022 53.2c32.065-1.749 89.947-57.28 89.947-57.28l86.948 47.206s0 .083-.084.333c-2.498 6.577-42.39 111.81-71.623 125.463-30.149 14.07-78.787 28.224-86.199 47.372-7.412 19.232-.583 33.218-.583 33.218 4.164.916 8.162 1.665 11.993 1.998 44.64 4.663 116.43-24.06 116.43-24.06s56.3-203.223 33.897-263.749z" fill="#FFF"/><path d="M603.223 220.457c22.32.582 39.643 0 39.643 0l24.569-32.72c-28.483 1.083-68.876 10.407-91.196 20.648-4.664 2.164-15.074 8.325-28.816 17.067 23.403-10.657 33.48-5.578 55.8-4.995z" fill="#C9E2F4"/><path d="M806.601 344.838s0 .083-.083.333a.83.83 0 00.083-.333z" fill="#E0A010"/><path d="M648.696 518.006c7.412-19.231 56.05-33.301 86.198-47.371 29.233-13.654 69.126-118.887 71.624-125.464-.166.333-.416.999-.75 1.915.584-1.416.917-2.248.917-2.248l-86.948-47.205s-57.882 55.53-89.947 57.279c-32.064 1.748-102.022-53.2-102.022-53.2l-.25 4.08c0-1.749.083-3.164.25-4.08L356.37 351.998l1.5 62.274 165.734-44.957 7.829-2.165s12.326 71.265 14.907 78.758c2.582 7.493-10.993 56.197-10.993 56.197s67.043 38.963 112.683 49.12c.083.083-6.83-13.987.666-33.219z" fill="#C9E2F4"/><g><path d="M666.352 95.659s12.326-50.12-24.069-54.781c-4.58-.583-9.078-.5-13.409.083 0 0-19.571 21.812-25.401 36.299-4.414 10.823-17.157 22.645-23.32 28.056 6.913 24.976 22.654 49.87 32.648 55.28 10.743 5.745 15.574 6.162 27.317 1.333 0 0 7.995-5.079 13.325-11.739 0 0-6.83 22.146-2.915 31.72 3.248 7.992-13.492 27.723-6.746 40.378 2.915 4.33 7.162 7.66 13.159 8.575 15.907 2.498 52.052-14.57 52.302-35.133-.083 0-21.57-66.853-42.891-100.071z" fill="#FF7977"/><path d="M603.39 77.26c5.913-14.487 25.401-36.299 25.401-36.299-30.648 4.33-55.384 35.966-50.053 59.277.416 1.665.832 3.413 1.332 5.162 6.246-5.412 18.989-17.317 23.32-28.14zM650.445 181.91c-3.915-9.574 2.915-31.72 2.915-31.72-5.33 6.66-13.326 11.739-13.326 11.739s3.248 24.976 0 36.132c-1.998 6.994-1.166 16.984 3.582 24.227-6.663-12.655 10.077-32.386 6.829-40.378z" fill="#F45658"/><g><path d="M607.97 63.356c.75.25 1.583.5 2.332.833-.75-.5-1.582-.75-2.332-.833z"/><path d="M521.855 55.78v-.25.25zM680.927 96.491c-1.25-7.076 1.499-47.954-.583-54.281-2.083-6.328-16.99-8.492-16.99-8.492s-4.081-21.813-9.911-26.059c-5.913-4.246-24.069-11.572-34.813-4.246-10.743 7.327-45.556 24.81-57.632 25.393-12.076.583-13.492 7.826-13.075 13.987.416 6.16-15.158.416-15.158.416s-1.499 13.404 6.163 17.9c0 0-11.493 2.164-17.073-5.579 0 0-2.915 35.633 17.656 31.72 19.738-3.746 48.97-29.722 68.46-23.894.749.084 1.582.333 2.331.833.5.25.916.5 1.25.75 7.412 4.828 16.74 11.738 24.735 10.24 0 0 10.327 17.65 11.91 17.316 1.582-.333-1.167-17.15.915-21.896 2.082-4.662 10.16-14.403 16.74-7.076 5.33 5.994.583 32.053.583 32.053s3.831 13.903 7.496 14.819c3.664.916 13.159-.083 15.074-7.493-.083.083-6.83.666-8.078-6.41z" fill="#303D8B"/><path d="M545.091 98.989c27.067 1.499 34.646-5.328 42.142-14.82 6.746-8.574 13.825-21.729 20.654-20.813-19.405-5.744-48.638 20.148-68.46 23.894-20.57 3.913-17.655-31.72-17.655-31.72v.25c-.167 3.33-2.499 41.877 23.319 43.209zM611.551 65.021a3.136 3.136 0 00-1.249-.749c.417.167.833.416 1.25.75z" fill="#0A1658"/></g></g><path fill="#303D8B" d="M479.047 238.44l27.983-.583 4.581 185.573-27.983.582z"/><path d="M473.467 458.813l4.83-16.9c1.75-6.245 8.829-9.991 15.658-8.41 6.83 1.665 10.993 7.993 9.161 14.237l-4.83 16.9c-1 3.497 3.164 6.411 6.58 4.58l8.66-4.663c2.666-1.415 4.581-3.746 5.33-6.41l3.082-10.823c1.416-4.83.583-9.99-2.165-14.32l-8.578-13.404-24.819-5.911-14.741 7.91c-4.747 2.497-8.162 6.66-9.578 11.488l-3.081 10.823c-.75 2.748-.333 5.578 1.25 7.993l5.08 7.909c1.998 3.163 7.162 2.497 8.161-1zM517.274 205.804l-4.83 16.9c-1.75 6.244-8.828 9.99-15.657 8.409-6.83-1.665-10.994-7.992-9.162-14.236l4.83-16.901c1-3.497-3.164-6.41-6.579-4.579l-8.661 4.662c-2.665 1.416-4.58 3.747-5.33 6.41l-3.082 10.824c-1.416 4.829-.583 9.99 2.166 14.32l8.661 13.403 24.819 5.911 14.74-7.909c4.748-2.497 8.163-6.66 9.578-11.489l3.082-10.823c.75-2.747.333-5.578-1.25-7.992l-5.08-7.91c-2.082-3.163-7.245-2.497-8.245 1z" fill="#303D8B"/><path d="M497.453 419.1c2.248-.083 4.08-1.748 3.997-3.83l-4.08-166.507c-.084-2.081-1.916-3.663-4.165-3.663-2.248.083-4.08 1.748-3.997 3.83l4.08 166.507c.084 2.082 1.916 3.663 4.165 3.663z" fill="#0A1658"/><g><path fill="#F45658" d="M441.986 294.47l3.415 96.074-87.531 23.728-1.5-62.274z"/><path d="M806.601 344.838c20.072-47.205 5.997-95.992-11.992-95.41 0 0-41.725-4.079-74.956 48.205-10.493 16.484-17.822 29.638-24.069 39.962 0 0 54.718 59.193 48.138 87.666 26.401-19.564 48.805-47.288 62.88-80.423z" fill="#FFF"/><path d="M736.727 394.707c3.497 6.91 6.08 13.737 7.079 19.898-.916-6.91-3.498-13.57-7.08-19.898z"/><path d="M743.806 414.605c-1-6.161-3.582-12.905-7.08-19.898-13.075-23.228-38.81-40.378-38.81-40.378l-17.073 12.904c-31.148 14.986-77.537-2.997-77.537-2.997-28.566-7.243-57.049-18.815-65.377-25.226-13.242-10.323-19.405-21.563-26.485-24.227-7.079-2.664-31.897-.416-34.23 4.413-2.331 4.828-1.915 38.213 0 38.796 1.916.583 34.564-2.914 36.313-.416 1.749 2.497 111.1 106.398 163.735 97.24 23.07-3.996 45.89-14.32 66.377-29.555.083-.416.167-.916.25-1.332.5-3.163.333-6.244-.083-9.324z" fill="#FF7977"/><path d="M680.927 367.317L698 354.412s25.734 17.15 38.81 40.378c-13.659-27.473-41.142-57.112-41.142-57.112-13.492 22.395-21.654 31.553-45.057 33.052-12.825.832-30.065-1.998-47.221-6.327 0-.084 46.389 17.9 77.537 2.914zM743.806 414.605c.416 3.08.5 6.16.25 9.324.5-2.83.333-5.994-.25-9.324z" fill="#F45658"/></g><g><path d="M595.644 979.067c3.248-10.574-3.83-37.298-3.83-37.298H564.33c-1 22.395-61.214 53.282-82.285 65.52 14.908.917 61.38 3.58 98.108 3.914 6.58-12.405 13.826-26.642 15.491-32.136z" fill="#303D8B"/><path d="M595.644 979.067c-1.665 5.494-8.911 19.73-15.49 32.136 16.99.166 31.897-.167 40.642-1.416.25-11.405-2.499-37.714-5.747-68.018h-23.236s7.08 26.641 3.831 37.298z" fill="#0A1658"/><path d="M474.883 1012.285c-.416 2.747 59.631 3.913 102.522 4.08a291.311 291.311 0 002.748-5.162c-36.728-.333-83.2-2.997-98.108-3.913-4.414 2.58-7.079 4.329-7.162 4.995z" fill="#C8E1F3"/><path d="M580.153 1011.203a291.311 291.311 0 01-2.748 5.161c22.07.084 39.643-.083 42.058-.5.833-.166 1.25-2.247 1.25-6.077-8.662 1.166-23.57 1.582-40.56 1.416z" fill="#C8E1F3"/><path d="M551.337 962.333l8.912 7.659M546.007 966.912l8.828 8.075M541.427 970.658l6.412 7.826" stroke="#C9E2F3" stroke-width="2" stroke-linecap="round"/><g><path d="M855.24 1018.529c7.828-7.077 55.3-71.349 56.715-82.671-4.33-5.328-12.992-12.988-28.483-25.975l-32.48 29.305c4.247 13.07-5.08 44.291-23.986 52.95-15.824 7.243-27.9 21.895-33.647 29.888 14.242.666 55.384 2.33 61.88-3.497z" fill="#303D8B"/><path d="M854.073 1029.685c11.743-1.998 45.473-56.446 54.468-72.514 5.663-10.074 10.66-12.405 3.414-21.396-1.416 11.322-48.887 75.594-56.716 82.67-6.496 5.829-47.638 4.163-61.796 3.414-2.332 3.247-3.582 5.412-3.582 5.412s52.47 4.412 64.212 2.414z" fill="#C8E1F3"/><path d="M850.659 958.003l8.411 1.25M848.66 964.747l9.078 1.249M845.911 971.407l8.912 1.582" stroke="#C9E2F3" stroke-width="2" stroke-linecap="round"/></g></g><path d="M852.657 886.322l-25.235 25.475" stroke="#C9E2F3" stroke-width="2" stroke-linecap="round"/><path d="M560.832 900.808h45.556" stroke="#050D2D" stroke-width="2" stroke-linecap="round"/></g><g><path d="M263.176 317.28c-11.993-52.532 20.821-104.9 73.373-116.888 52.552-11.988 104.937 20.814 116.93 73.347 4.83 20.98 2.415 41.877-5.413 60.193-8.912 23.56-38.894 54.78-35.729 68.6l3.581 15.82c.75 3.163-1.249 6.326-4.414 6.993l-15.324 3.496-14.075 3.247-15.324 3.497c-3.165.749-6.33-1.249-6.996-4.413l-3.581-15.818c-3.165-13.82-43.724-28.89-62.046-46.206-14.991-13.154-26.151-30.97-30.982-51.867z" fill="#FEB701"/><path d="M454.645 279.4c3.665 40.212-18.572 87.833-76.87 101.07-58.216 13.321-98.192-22.062-113.183-57.694 5.413 18.565 15.907 34.384 29.566 46.289 18.239 17.4 58.881 32.386 62.046 46.206l3.581 15.818c.75 3.164 3.831 5.162 6.996 4.413l15.324-3.497 14.075-3.247 15.324-3.497c3.165-.749 5.164-3.83 4.414-6.993l-3.581-15.818c-3.165-13.82 26.817-45.04 35.729-68.602 7.245-16.567 9.744-35.383 6.58-54.448z" fill="#E0A010"/><path d="M399.678 426.427c-.666-2.331-11.077-40.129-15.657-74.346-3.665 1.332-7.58 2.414-11.91 3.413-4.33 1-8.328 1.666-12.243 2.082 10.744 32.802 17.74 71.348 18.156 73.763l-1.665.333c-.084-.583-7.413-40.462-18.323-73.93-29.15 2.498-45.39-10.573-51.136-25.142-3.331-8.492-2.332-17.983 2.415-22.479 2.832-2.747 6.83-4.08 11.327-3.83 7.162.417 14.908 4.746 20.654 11.573 6.663 7.909 12.743 22.228 18.073 38.047 3.914-.417 7.995-1.083 12.409-2.082 4.33-.999 8.328-2.164 12.076-3.496-2.165-16.568-2.832-32.053-.25-42.044 2.166-8.658 7.246-15.901 13.575-19.398 3.998-2.164 8.079-2.747 11.91-1.498 6.246 1.998 11.243 10.073 11.91 19.231 1.165 15.569-7.83 34.468-35.146 44.874 4.664 34.8 15.49 73.93 15.657 74.513l-1.832.416zm2.249-137.619c-1.333.333-2.749.833-4.081 1.582-5.913 3.247-10.66 10.074-12.743 18.316-2.415 9.657-1.749 24.81.333 41.044 26.151-10.074 34.73-28.057 33.647-42.96-.666-8.325-5.247-15.9-10.744-17.732-1.998-.666-4.164-.75-6.412-.25zm-85.783 19.565c-2.165.5-4.08 1.498-5.663 2.997-4.164 3.996-4.997 12.904-1.999 20.647 5.414 13.903 21.071 26.391 48.971 24.06-5.163-15.568-11.16-29.472-17.573-37.048-5.496-6.494-12.742-10.573-19.405-10.99-1.416-.083-2.915 0-4.33.334z" fill="#FFF" fill-rule="nonzero"/><path d="M416.168 408.777l-60.547 13.82 6.58 28.89c1.082 4.745 3.497 8.99 6.912 12.404a26.86 26.86 0 0024.735 7.077l8.911-1.998c8.912-1.998 16.157-8.492 19.239-17.067 1.582-4.58 1.915-9.491.833-14.154l-6.663-28.972z" fill="#0A1658"/><path d="M360.118 438.665c.167 0 .333-.083.5-.083l60.963-13.654c2.083-.5 3.332-2.497 2.749-4.579-.583-2.081-2.665-3.413-4.747-2.914l-60.964 13.654c-2.082.5-3.331 2.498-2.748 4.579a4.05 4.05 0 004.247 2.997zM361.7 452.152c.167 0 .334-.083.5-.083l60.964-13.654c2.082-.5 3.331-2.497 2.748-4.579-.583-2.08-2.665-3.413-4.747-2.913l-60.964 13.653c-2.082.5-3.33 2.498-2.748 4.58a4.05 4.05 0 004.248 2.996zM365.781 465.14c.167 0 .334-.083.5-.083l57.799-12.988c2.082-.5 3.331-2.498 2.748-4.579-.583-2.081-2.665-3.413-4.747-2.914l-57.799 12.988c-2.082.5-3.331 2.497-2.748 4.579a4.05 4.05 0 004.247 2.997z" fill="#C9DCF0"/><g fill="#FE9"><path d="M438.988 282.814c-2.998.666-5.997-1.166-6.746-4.246-7.746-33.885-37.395-58.028-72.04-58.86-3.082-.084-5.58-2.665-5.497-5.745.083-3.08 2.665-5.578 5.746-5.495 39.81.916 73.79 28.723 82.7 67.602.667 3.08-1.165 6.078-4.163 6.744zM338.381 216.46c.666 2.997 3.665 4.912 6.746 4.246 2.998-.666 4.914-3.663 4.248-6.743-.667-2.997-3.665-4.912-6.746-4.246-3.082.749-4.914 3.746-4.248 6.743z"/></g><path d="M353.122 409.693s-76.704-14.403-71.04-53.283c3.497-24.143 20.237-34.883 24.651-33.468 4.414 1.415-.333 40.212 0 43.292 0 0 2.999 12.239 12.077 16.9 9.077 4.746 33.896 22.812 34.312 26.559z" fill="#FF7977"/></g><g><path fill="#8EACCD" d="M439.82 802.152H302.07v-86.5H477.63v86.5z"/><path fill="#8EACCD" d="M315.561 730.554h101.94V750.7H315.56zM402.01 779.007c0-4.745-3.831-8.658-8.578-8.658-4.748 0-8.579 3.913-8.579 8.658a8.564 8.564 0 008.579 8.576c4.747.083 8.578-3.83 8.578-8.576zM367.864 779.007c0-4.745-3.915-8.658-8.579-8.658-4.747 0-8.661 3.913-8.661 8.658 0 4.746 3.914 8.576 8.661 8.576 4.664.083 8.579-3.83 8.579-8.576zM331.802 779.007c0-4.745-3.831-8.658-8.578-8.658-4.748 0-8.579 3.913-8.579 8.658a8.564 8.564 0 008.579 8.576 8.564 8.564 0 008.578-8.576z"/><path fill="#0A1658" d="M440.404 656.458v26.308h-98.525v-15.652zM315.561 730.554h101.94V750.7H315.56z"/><g fill="#FEB701"><path d="M393.348 770.349c4.748 0 8.579 3.913 8.579 8.658a8.564 8.564 0 01-8.579 8.576c-4.747 0-8.578-3.913-8.578-8.576 0-4.745 3.831-8.658 8.578-8.658zM359.202 770.349c4.747 0 8.578 3.913 8.578 8.658 0 4.746-3.914 8.576-8.578 8.576-4.747 0-8.661-3.913-8.661-8.576 0-4.745 3.914-8.658 8.661-8.658zM323.14 770.349c4.747 0 8.579 3.913 8.579 8.658a8.564 8.564 0 01-8.579 8.576c-4.747 0-8.578-3.913-8.578-8.576 0-4.745 3.831-8.658 8.578-8.658z"/></g><path fill="#0A1658" d="M444.734 474.298l-14.324 1.498-63.13 6.827-17.406 1.915-1.998-18.732 93.943-18.815z"/><path d="M527.768 525.083l-6.413-58.778-42.141 4.33c0-.084 0-.084.083-.167l-34.563 3.747-3.414.333-10.994 1.165-63.129 6.827-17.406 1.832-81.868 8.908 19.489 179.662 54.3-5.911 98.525-10.657 100.44-10.823-12.909-120.468z" fill="#C9DCF0"/><path d="M373.61 552.806c2.082 19.149-11.826 36.382-30.981 38.464-19.156 2.081-36.479-11.822-38.477-30.97-2.082-19.232 11.826-36.466 30.981-38.547 19.155-1.998 36.395 11.822 38.477 31.053zM493.372 537.321c2.082 19.149-11.826 36.382-30.982 38.463-19.155 2.082-36.478-11.822-38.477-30.97-2.082-19.232 11.827-36.465 30.982-38.547 19.155-1.998 36.395 11.822 38.477 31.054z" fill="#0A1658"/><path d="M357.12 572.704c-5.747-3.746-11.493-7.493-17.156-11.406-3.831 5.662-7.746 11.156-11.743 16.651-2.082 2.83-6.58-.166-4.498-3.08a600.534 600.534 0 0011.743-16.734c-5.247-3.497-10.41-7.243-15.49-10.907-2.832-1.998.166-6.493 3.081-4.412 5.08 3.663 10.244 7.326 15.49 10.906a528.513 528.513 0 0010.494-15.985c1.916-2.914 6.33.084 4.498 3.08-3.415 5.329-6.996 10.657-10.577 15.986 5.663 3.83 11.41 7.659 17.156 11.405 2.998 1.915-.083 6.41-2.998 4.496zM477.715 557.635c-5.747-3.746-11.494-7.493-17.157-11.406-3.83 5.662-7.745 11.156-11.743 16.651-2.082 2.83-6.58-.166-4.497-3.08a600.535 600.535 0 0011.743-16.734c-5.247-3.497-10.41-7.243-15.49-10.907-2.832-1.998.166-6.493 3.08-4.412 5.08 3.663 10.245 7.326 15.491 10.906a528.514 528.514 0 0010.494-15.985c1.916-2.913 6.33.084 4.497 3.08-3.414 5.33-6.995 10.657-10.577 15.986 5.664 3.83 11.41 7.659 17.157 11.405 2.998 1.915 0 6.41-2.998 4.496z" fill="#F8F8F8"/><path d="M466.804 626.486l-113.682 12.322s-4.247-48.62 50.054-54.532c54.384-5.91 63.628 42.21 63.628 42.21z" fill="#0A1658"/><path d="M379.273 634.062c-2.332-10.99-4.58-21.896-6.912-32.885-.583-2.914-5.33-2.581-4.664.333 2.332 10.99 4.58 21.896 6.913 32.885.583 2.914 5.246 2.664 4.663-.333zM395.264 587.273c-.417-2.997-5.08-2.664-4.664.334l5.747 44.873c.416 2.998 5.08 2.665 4.663-.333l-5.746-44.874zM417.584 587.607c0-2.998-4.664-2.665-4.664.333l.25 42.626c0 2.997 4.664 2.664 4.664-.333 0-14.237-.084-28.39-.25-42.626zM436.656 591.77a32806.798 32806.798 0 01-5.997 36.131c-.5 2.998 4.081 3.913 4.581.916 1.999-12.072 3.998-24.143 5.996-36.132.583-2.997-4.08-3.913-4.58-.916z" fill="#303D8B"/><path d="M440.404 682.766H263.593v310.871H500.45V682.682h-60.047v.083zm37.227 119.386H302.07v-86.5H477.63v86.5z" fill="#C9DCF0" fill-rule="nonzero"/><g><path d="M263.593 884.573v56.114c-26.485-7.493-55.134-10.157-81.369-1.749-27.067 8.575-50.886 30.887-55.55 58.944H77.62c.5-28.556 12.576-56.696 32.897-76.76 10.078-1.665 19.322-8.825 23.903-18.233 16.656-13.903 37.06-23.31 58.548-26.89 23.32-3.914 47.722-.917 69.375 8.574h1.25z" fill="#0A1658"/><path d="M133.42 974.904c-13.159-5.828-26.317-11.572-39.476-17.4-2.748-1.249-4.83 2.997-2.082 4.246 13.159 5.828 26.317 11.572 39.476 17.4 2.749 1.165 4.83-2.997 2.082-4.246zM153.658 953.508l-30.482-32.969c-2.082-2.248-5.08 1.332-3.081 3.58l30.482 32.969c1.999 2.164 5.08-1.416 3.081-3.58zM177.144 937.107c-5.33-15.902-10.66-31.803-15.907-47.705-.916-2.83-5.33-1.249-4.414 1.582 5.33 15.901 10.66 31.803 15.907 47.704 1 2.914 5.414 1.333 4.414-1.581zM193.8 879.828c-.332-2.997-4.996-2.664-4.663.333 2.082 17.816 4.164 35.55 6.246 53.366.333 2.997 4.997 2.664 4.664-.333-1.999-17.733-4.164-35.55-6.246-53.366zM228.78 880.327c-1.083 17.15-2.082 34.301-3.165 51.451-.166 2.998 4.414 3.913 4.58.916 1.084-17.15 2.083-34.3 3.166-51.45.166-2.998-4.414-3.914-4.581-.917zM256.014 886.572c-2.915 15.901-5.747 31.803-8.662 47.62-.5 2.998 4.081 3.83 4.58.917 2.916-15.902 5.747-31.803 8.662-47.622.5-2.997-4.08-3.913-4.58-.915z" fill="#303D8B"/></g><g fill="#FEB701"><path d="M257.013 437.75l-2.082 44.79-13.242-27.557-20.071 7.91-16.99-32.387 28.4-22.895 3.747 35.217zM250.184 505.685l-25.402 11.738-12.159 37.798-27.484-10.24V514.26l24.985 7.909 4.415-20.23zM273.253 438.332l-.75 35.05c-.082 2.997 4.581 2.664 4.665-.333l.75-35.05c.083-3.08-4.581-2.664-4.665.333zM243.355 488.201c-9.578-5.161-19.156-10.24-28.816-15.402-2.666-1.415-4.748 2.83-2.083 4.246 9.578 5.162 19.156 10.24 28.817 15.402 2.665 1.416 4.747-2.83 2.082-4.246zM249.767 522.086l-18.072 15.402c-2.249 1.914.333 5.827 2.665 3.83 5.996-5.162 11.993-10.24 18.073-15.403 2.248-1.915-.417-5.744-2.666-3.83z"/></g><g><path d="M78.87 851.355c6.246-45.29 29.149-89.498 63.378-119.802 33.23-29.556 76.871-47.122 121.345-48.87v40.794c-35.48 2.414-69.875 17.4-95.86 41.627-26.068 24.393-43.39 58.278-48.221 93.66l-40.642-7.409z" fill="#0A1658"/><path d="M231.362 694.005c-.417-2.997-5.08-2.664-4.664.333 1.499 10.657 2.998 21.23 4.497 31.886.417 2.998 5.08 2.664 4.664-.333a2254.658 2254.658 0 01-4.497-31.886zM204.794 736.132l-16.74-31.22c-1.415-2.665-5.247 0-3.83 2.663l16.74 31.22c1.332 2.665 5.246 0 3.83-2.663zM179.976 752.116c-7.412-10.406-14.741-20.813-22.154-31.22-1.749-2.498-5.58.167-3.83 2.664 7.412 10.407 14.74 20.814 22.153 31.22 1.749 2.415 5.58-.25 3.83-2.664zM156.49 771.764l-27.484-23.977c-2.248-1.998-5.33 1.582-3.081 3.58l27.483 23.977c2.249 1.998 5.33-1.582 3.082-3.58zM137.335 797.823c-10.577-6.078-21.238-12.072-31.815-18.15-2.665-1.498-4.664 2.748-2.082 4.246 10.577 6.078 21.238 12.072 31.815 18.15 2.665 1.498 4.663-2.748 2.082-4.246zM123.093 830.791c-11.743-3.746-23.57-7.41-35.312-11.156-2.915-.915-3.748 3.663-.916 4.58 11.743 3.746 23.569 7.409 35.312 11.155 2.832.916 3.748-3.746.916-4.579z" fill="#303D8B"/><path d="M120.345 892.566c13.991-30.471-36.312-38.297-50.47-39.879-10.577 3.247-19.572 11.656-22.82 22.312-4.414 14.57 2.832 31.803 16.324 38.963 4.08-5.245 8.078-10.49 12.16-15.818l-.584-.416c-4.08-3.33-5.163-9.575-3.081-14.403 2.082-4.83 6.912-8.16 12.076-9.242 5.163-1.082 10.66 0 15.407 2.165 5.497 2.498 10.827 7.576 10.327 13.57-.25 3.247-2.165 6.161-4.663 8.326-2.499 2.164-5.414 3.58-8.329 5.078l.667 1.332c.5 1.998 1.582 4.912 2.748 7.743 7.329-2.081 14.658-7.493 20.238-19.731z" fill="#FEB701"/><path d="M110.434 921.122c10.077-1.665 19.322-8.825 23.902-18.233 1-1.831 1.666-3.83 2.25-5.744 3.58-13.238-6.33-35.633-17.157-38.547-13.076-3.163-40.226-7.41-40.56-7.41-3.08 0-6.162.583-9.077 1.416 14.158 1.582 64.461 9.49 50.47 39.879-5.58 12.238-12.91 17.65-20.155 19.564a268.892 268.892 0 003.997 9.325c2.166.25 4.331.166 6.33-.25z" fill="#E0A010"/></g><g><path d="M433.158 988.225c31.315-11.822 1.166-52.783-7.829-63.856-9.744-5.079-22.153-5.495-31.897-.167-13.409 7.327-20.322 24.643-15.824 39.13 6.58-.833 13.159-1.749 19.738-2.664l-.083-.666c-.583-5.245 2.998-10.407 7.912-12.405 4.913-1.915 10.66-.916 15.074 1.915 4.414 2.83 7.579 7.492 9.411 12.404 2.165 5.662 2.415 12.988-2.165 16.9-2.499 2.082-5.914 2.832-9.162 2.665-3.248-.166-6.33-1.249-9.41-2.248l-.417 1.415c-1.083 1.832-2.332 4.58-3.498 7.41 6.58 3.663 15.657 4.912 28.15.167z" fill="#FEB701"/><path d="M406.09 1001.545c8.412 5.911 19.989 7.243 29.816 3.913 2-.583 3.831-1.498 5.664-2.497 11.826-6.91 20.57-29.722 14.907-39.463-7.079-11.406-23.402-33.551-23.569-33.718-2.249-2.164-4.747-3.913-7.495-5.328 8.994 11.073 39.143 52.034 7.828 63.856-12.576 4.745-21.654 3.497-28.15-.25a223.385 223.385 0 00-3.747 9.408c1.415 1.582 2.998 2.914 4.747 4.08z" fill="#E0A010"/><g><path d="M573.158 784.835c-6.08-67.02-69.792-100.487-72.79-101.986v49.37l19.488-32.053c.833-1.415 2.665-1.832 3.998-1 1.416.833 1.832 2.665 1 3.997l-20.405 33.635c-.583.915-1.5 1.415-2.499 1.415-.5 0-1-.167-1.499-.416v.083c12.41 11.24 26.068 28.64 28.067 51.368.083.999.166 1.914.166 2.914a2.905 2.905 0 012.499-1.416h38.06c1.583 0 2.915 1.332 2.915 2.914s-1.332 2.914-2.915 2.914h-38.06c-1 0-1.916-.5-2.416-1.332 0 9.408-1.998 19.232-5.913 29.389.75-.333 1.583-.417 2.416-.084l35.229 14.82a2.973 2.973 0 011.582 3.83c-.5 1.081-1.582 1.748-2.665 1.748-.417 0-.75-.084-1.166-.25l-35.23-14.82c-.749-.332-1.332-.915-1.581-1.665-13.243 31.47-44.14 66.187-91.612 102.403l27.317 35.716c82.2-62.94 121.26-123.965 116.014-181.494zm-16.74-44.124l-29.316 22.811c-.5.416-1.166.583-1.75.583-.832 0-1.748-.416-2.331-1.166-1-1.248-.75-3.08.5-4.08l29.315-22.81c1.25-1 3.082-.75 4.081.499 1 1.415.833 3.247-.5 4.163zm-81.452 209.05c-.5.417-1.166.666-1.832.666-.833 0-1.749-.416-2.249-1.082l-22.403-28.306c-1-1.25-.75-3.08.5-4.08 1.249-.999 3.081-.75 4.08.5l22.404 28.306c1 1.166.75 2.997-.5 3.996zm30.815-28.556c-.583.583-1.332.916-2.165.916-.75 0-1.416-.25-1.999-.75l-26.068-24.393c-1.166-1.082-1.249-2.914-.166-4.08 1.082-1.165 2.915-1.248 4.08-.166l26.068 24.394c1.333.999 1.333 2.83.25 4.08zM531.85 891.9c-.583.666-1.416 1.082-2.249 1.082-.666 0-1.332-.25-1.832-.666l-27.9-23.061c-1.25-1-1.416-2.831-.416-4.08.999-1.249 2.831-1.415 4.08-.416l27.9 23.061c1.25 1 1.416 2.831.417 4.08z" fill="#0A1658" fill-rule="nonzero"/><path d="M500.451 737.713c.5.25 1 .417 1.5.417.999 0 1.915-.5 2.498-1.416l20.404-33.634c.833-1.416.417-3.164-1-3.996-1.415-.833-3.164-.417-3.997.999l-19.488 32.052.083 5.578zM552.836 736.132l-29.315 22.811c-1.25 1-1.5 2.83-.5 4.08.583.749 1.416 1.165 2.332 1.165.666 0 1.25-.166 1.749-.583l29.316-22.811c1.249-1 1.499-2.83.5-4.08-.917-1.332-2.749-1.581-4.082-.582zM453.063 917.375c-1-1.248-2.832-1.498-4.081-.499-1.25.999-1.5 2.83-.5 4.08l22.403 28.306c.583.749 1.416 1.082 2.249 1.082.666 0 1.25-.166 1.832-.666 1.25-.999 1.5-2.83.5-4.08l-22.403-28.223zM479.547 892.649c-1.166-1.082-2.998-.999-4.081.167-1.083 1.165-1 2.997.167 4.079l26.067 24.393c.583.5 1.25.75 2 .75.749 0 1.581-.333 2.164-.916 1.083-1.166 1-2.997-.166-4.08l-26.151-24.393zM503.533 864.759c-1.25-1-3.082-.833-4.081.416-1 1.249-.833 3.08.416 4.08l27.9 23.061c.583.416 1.166.666 1.832.666.833 0 1.666-.333 2.249-1.082 1-1.249.833-3.08-.416-4.08l-27.9-23.061zM521.355 825.963c-.333.749-.25 1.498 0 2.164.5-1.249 1-2.414 1.416-3.663a3.528 3.528 0 00-1.416 1.499z" fill="#303D8B"/><path d="M522.938 829.792l35.229 14.82c.333.166.75.25 1.166.25 1.166 0 2.248-.667 2.665-1.75.666-1.498-.084-3.163-1.583-3.829l-35.229-14.819c-.833-.333-1.665-.25-2.415.083-.416 1.166-.916 2.415-1.416 3.663.25.583.833 1.25 1.583 1.582zM528.6 792.078c-.249.417-.416.916-.416 1.499 0 .583.167 1.082.5 1.582 0-1.083 0-2.082-.083-3.08z" fill="#303D8B"/><path d="M531.1 796.407h38.06c1.582 0 2.915-1.332 2.915-2.913 0-1.582-1.333-2.914-2.915-2.914H531.1a2.905 2.905 0 00-2.5 1.415c0 .999.084 1.998.084 2.997.5.916 1.416 1.415 2.415 1.415z" fill="#303D8B"/></g></g></g></g></svg>