<svg xmlns="http://www.w3.org/2000/svg" xmlns:xlink="http://www.w3.org/1999/xlink" width="500" zoomAndPan="magnify" viewBox="0 0 375 374.999991" height="500" preserveAspectRatio="xMidYMid meet" version="1.0"><rect x="-37.5" width="450" fill="#ffffff" y="-37.499999" height="449.999989" fill-opacity="1"/><rect x="-37.5" width="450" fill="#ffffff" y="-37.499999" height="449.999989" fill-opacity="1"/><rect x="-37.5" width="450" fill="#ffffff" y="-37.499999" height="449.999989" fill-opacity="1"/><path fill="#000000" d="M 142.703125 43.410156 C 142.703125 43.410156 80.050781 44.234375 80.863281 101.011719 C 81.675781 157.792969 93.070312 208 111.785156 235.976562 C 130.503906 263.957031 178.5 337.199219 233.019531 329.796875 C 233.019531 329.796875 259.875 324.035156 280.210938 310.863281 L 214.304688 259.019531 C 214.304688 259.019531 194.777344 271.363281 182.574219 254.902344 C 170.367188 238.441406 132.125 161.914062 132.125 161.914062 C 132.125 161.914062 121.550781 137.222656 145.148438 126.523438 Z M 142.703125 43.410156 " fill-opacity="1" fill-rule="nonzero"/><path fill="#000000" d="M 150.027344 43.410156 C 150.027344 43.410156 154.910156 41.769531 163.859375 46.703125 C 172.804688 51.636719 172.808594 55.75 172.808594 55.75 L 173.625 112.539062 C 173.625 112.539062 171.179688 115.832031 167.929688 119.117188 C 164.675781 122.40625 154.097656 127.347656 152.464844 124.054688 C 150.84375 120.765625 150.027344 43.410156 150.027344 43.410156 Z M 150.027344 43.410156 " fill-opacity="1" fill-rule="nonzero"/><path fill="#000000" d="M 219.785156 252.949219 L 237.902344 243.382812 C 237.902344 243.382812 241.972656 242.5625 248.476562 246.671875 C 254.988281 250.796875 289.164062 277.953125 289.164062 277.953125 C 289.164062 277.953125 294.859375 282.890625 293.230469 288.652344 C 291.601562 294.410156 287.535156 306.757812 287.535156 306.757812 Z M 219.785156 252.949219 " fill-opacity="1" fill-rule="nonzero"/></svg>