<svg xmlns="http://www.w3.org/2000/svg" xmlns:xlink="http://www.w3.org/1999/xlink" width="500" zoomAndPan="magnify" viewBox="0 0 375 374.999991" height="500" preserveAspectRatio="xMidYMid meet" version="1.0"><defs><clipPath id="1789397219"><path d="M 34.050781 34.050781 L 340.800781 34.050781 L 340.800781 340.800781 L 34.050781 340.800781 Z M 34.050781 34.050781 " clip-rule="nonzero"/></clipPath></defs><rect x="-37.5" width="450" fill="#ffffff" y="-37.499999" height="449.999989" fill-opacity="1"/><rect x="-37.5" width="450" fill="#ffffff" y="-37.499999" height="449.999989" fill-opacity="1"/><g clip-path="url(#1789397219)"><path fill="#000000" d="M 306.4375 34.050781 C 255.453125 34.050781 187.042969 69.027344 141.101562 129.167969 L 103.015625 129.167969 C 75.496094 129.167969 59.722656 149.707031 48.863281 171.429688 L 34.324219 200.503906 L 103.015625 200.503906 L 138.683594 236.171875 L 174.355469 271.839844 L 174.355469 340.53125 L 203.429688 325.996094 C 225.152344 315.132812 245.691406 299.359375 245.691406 271.839844 L 245.691406 233.757812 C 305.828125 187.816406 340.808594 119.402344 340.808594 68.417969 L 340.808594 34.050781 Z M 245.691406 105.386719 C 258.824219 105.386719 269.46875 116.03125 269.46875 129.167969 C 269.46875 142.300781 258.824219 152.945312 245.691406 152.945312 C 232.558594 152.945312 221.910156 142.300781 221.910156 129.167969 C 221.910156 116.03125 232.558594 105.386719 245.691406 105.386719 Z M 91.125 248.0625 L 79.238281 259.953125 C 62.0625 277.125 55.457031 319.398438 55.457031 319.398438 C 55.457031 319.398438 95.835938 314.691406 114.90625 295.621094 L 126.796875 283.730469 Z M 91.125 248.0625 " fill-opacity="1" fill-rule="nonzero"/></g></svg>