<svg xmlns="http://www.w3.org/2000/svg" xmlns:xlink="http://www.w3.org/1999/xlink" width="500" zoomAndPan="magnify" viewBox="0 0 375 374.999991" height="500" preserveAspectRatio="xMidYMid meet" version="1.0"><defs><clipPath id="6897b81204"><path d="M 38.148438 59 L 277 59 L 277 310 L 38.148438 310 Z M 38.148438 59 " clip-rule="nonzero"/></clipPath><clipPath id="88e9963eb6"><path d="M 127 57.417969 L 337.398438 57.417969 L 337.398438 242 L 127 242 Z M 127 57.417969 " clip-rule="nonzero"/></clipPath></defs><rect x="-37.5" width="450" fill="#ffffff" y="-37.499999" height="449.999989" fill-opacity="1"/><rect x="-37.5" width="450" fill="#ffffff" y="-37.499999" height="449.999989" fill-opacity="1"/><path fill="#000000" d="M 135.972656 258.898438 C 127.789062 258.898438 121.617188 266.109375 121.617188 275.671875 C 121.617188 278.488281 122.09375 288 128.230469 292.121094 C 132.34375 294.886719 138.371094 294.792969 146.117188 291.921875 C 146.09375 291.503906 146.070312 291.085938 146.074219 290.6875 C 146.089844 285.578125 147.671875 281.050781 150.304688 277.625 C 150.070312 265.550781 145.011719 258.898438 135.972656 258.898438 Z M 135.972656 258.898438 " fill-opacity="1" fill-rule="nonzero"/><path fill="#000000" d="M 173.519531 280.378906 C 170.695312 277.574219 166.996094 275.96875 163.351562 275.96875 C 163.324219 275.96875 163.292969 275.96875 163.265625 275.96875 C 159.777344 275.996094 156.71875 277.589844 154.523438 280.222656 C 154.519531 280.222656 154.515625 280.230469 154.515625 280.230469 C 152.324219 282.867188 150.996094 286.535156 150.980469 290.707031 C 150.960938 297.011719 154.609375 307.035156 164.484375 307.074219 C 164.511719 307.074219 164.535156 307.074219 164.5625 307.074219 C 168.367188 307.074219 171.414062 305.960938 173.621094 303.757812 C 176.421875 300.96875 177.964844 296.332031 177.964844 290.699219 C 177.964844 286.894531 176.382812 283.230469 173.519531 280.378906 Z M 173.519531 280.378906 " fill-opacity="1" fill-rule="nonzero"/><path fill="#000000" d="M 131.179688 254.671875 C 131.144531 247.246094 125.878906 240.535156 118.996094 239.574219 C 115.375 239.070312 111.742188 240.152344 108.769531 242.625 C 105.726562 245.148438 103.738281 248.804688 103.164062 252.921875 C 102.40625 258.34375 103.632812 263.214844 106.519531 266.28125 C 108.988281 268.902344 112.625 270.199219 117.347656 270.152344 C 119.078125 262.476562 124.34375 256.578125 131.179688 254.671875 Z M 131.179688 254.671875 " fill-opacity="1" fill-rule="nonzero"/><g clip-path="url(#6897b81204)"><path fill="#000000" d="M 195.804688 175.324219 C 193.714844 174.214844 191.191406 174.199219 189.035156 175.304688 C 173.757812 183.09375 156.992188 188.96875 156.824219 189.027344 C 156.738281 189.054688 156.652344 189.082031 156.5625 189.101562 C 139.921875 192.917969 127.839844 186.300781 123.652344 178.546875 C 121.160156 173.925781 122.035156 168.089844 125.785156 164.355469 C 145.753906 144.4375 183.859375 124.957031 201.238281 130.644531 C 229.886719 139.730469 244.800781 135.695312 252.265625 130.695312 C 260.859375 124.953125 261.972656 116.734375 262.113281 115.144531 C 262.257812 113.445312 262.144531 110.96875 260.773438 108.839844 C 256.71875 102.546875 246.34375 102.09375 235.355469 101.613281 C 228.984375 101.335938 222.398438 101.050781 216.800781 99.523438 C 211.011719 97.945312 206.140625 97.304688 200.503906 97.375 C 147.101562 98.042969 118.238281 115.871094 117.953125 116.046875 C 117.101562 116.582031 116.011719 116.550781 115.199219 115.957031 L 38.148438 59.882812 L 38.148438 183.695312 L 63.855469 197.726562 C 64.257812 197.945312 64.59375 198.277344 64.816406 198.679688 C 64.996094 198.996094 82.222656 229.445312 102.328125 242.371094 C 103.292969 241.074219 104.386719 239.878906 105.636719 238.84375 C 109.6875 235.484375 114.667969 234.003906 119.675781 234.710938 C 128.882812 235.992188 135.746094 244.347656 136.0625 253.996094 C 146.667969 254.035156 153.488281 261.1875 154.9375 273.40625 C 157.367188 271.921875 160.183594 271.082031 163.230469 271.0625 C 163.269531 271.0625 163.308594 271.0625 163.351562 271.0625 C 168.28125 271.0625 173.238281 273.183594 176.976562 276.894531 C 180.253906 280.152344 182.253906 284.25 182.746094 288.605469 C 190.550781 285.558594 198.277344 288.070312 202.460938 292.753906 C 206.542969 297.324219 207.117188 303.417969 204.347656 309.125 C 214.488281 311.085938 218.660156 304.917969 220.03125 301.953125 C 222.457031 296.722656 221.53125 291.09375 219.085938 289.5625 C 219.074219 289.554688 219.070312 289.542969 219.058594 289.53125 C 218.996094 289.488281 218.929688 289.457031 218.875 289.410156 C 208.625 281.371094 183.207031 261.007812 168.675781 245.550781 C 167.746094 244.5625 167.792969 243.007812 168.78125 242.078125 C 169.765625 241.152344 171.320312 241.199219 172.25 242.183594 C 186.554688 257.398438 211.738281 277.578125 221.902344 285.546875 C 225.058594 288.023438 228.996094 289.125 232.703125 288.574219 C 239.363281 287.585938 244.820312 284.371094 248.925781 279.015625 C 252.597656 274.226562 252.042969 267.363281 247.636719 263.0625 C 228.636719 244.5 195.890625 219.085938 195.5625 218.828125 C 194.492188 217.996094 194.296875 216.457031 195.125 215.386719 C 195.953125 214.308594 197.496094 214.117188 198.566406 214.945312 C 198.898438 215.203125 231.859375 240.789062 251.0625 259.546875 C 252.414062 260.867188 253.457031 262.378906 254.285156 263.976562 C 266.074219 262.492188 273.257812 252.539062 275.695312 246.644531 C 277.207031 242.988281 274.785156 238.832031 272.253906 236.390625 C 253.214844 218.023438 199.472656 178.050781 195.804688 175.324219 Z M 195.804688 175.324219 " fill-opacity="1" fill-rule="nonzero"/></g><g clip-path="url(#88e9963eb6)"><path fill="#000000" d="M 266.53125 110.011719 C 266.988281 111.738281 267.171875 113.597656 267.003906 115.566406 C 266.511719 121.304688 263.09375 129.363281 254.992188 134.777344 C 242.835938 142.910156 224.246094 143.089844 199.734375 135.316406 C 185.859375 130.785156 149.636719 147.496094 129.25 167.828125 C 127.027344 170.042969 126.503906 173.496094 127.972656 176.214844 C 130.742188 181.355469 140.316406 187.722656 155.335938 184.347656 C 156.894531 183.792969 172.53125 178.210938 186.804688 170.933594 C 190.433594 169.074219 194.710938 169.121094 198.238281 171.050781 C 208.488281 176.644531 235.953125 187.105469 269.597656 163.554688 C 270.710938 162.78125 272.238281 163.050781 273.015625 164.160156 C 273.792969 165.269531 273.523438 166.800781 272.410156 167.578125 C 248.230469 184.511719 226.929688 184.890625 212.214844 181.496094 C 230.382812 195.242188 261.699219 219.390625 275.660156 232.863281 C 277.804688 234.929688 279.820312 237.9375 280.648438 241.265625 C 287.660156 236.136719 304.796875 221.878906 324.496094 192.910156 C 324.730469 192.5625 325.050781 192.285156 325.425781 192.09375 L 337.398438 186.09375 L 337.398438 57.578125 Z M 266.53125 110.011719 " fill-opacity="1" fill-rule="nonzero"/></g><path fill="#000000" d="M 182.675781 294.09375 C 182.109375 299.546875 180.1875 304.144531 177.082031 307.238281 C 176.605469 307.710938 176.101562 308.136719 175.578125 308.539062 C 177.21875 313.015625 179.964844 315.75 183.589844 316.457031 C 188.429688 317.40625 194.394531 314.726562 198.097656 309.945312 C 201.992188 305.078125 202.246094 299.882812 198.800781 296.027344 C 195.503906 292.339844 189.027344 290.652344 182.675781 294.09375 Z M 182.675781 294.09375 " fill-opacity="1" fill-rule="nonzero"/></svg>